<?xml version="1.0" encoding="UTF-8" standalone="no"?>
<!DOCTYPE svg PUBLIC "-//W3C//DTD SVG 1.1//EN" "http://www.w3.org/Graphics/SVG/1.1/DTD/svg11.dtd">
<svg width="100%" height="100%" viewBox="0 0 1016 497" version="1.1" xmlns="http://www.w3.org/2000/svg" xmlns:xlink="http://www.w3.org/1999/xlink" xml:space="preserve" xmlns:serif="http://www.serif.com/" style="fill-rule:evenodd;clip-rule:evenodd;stroke-linejoin:round;stroke-miterlimit:2;">
    <g transform="matrix(1,0,0,1,-9095.68,-384)">
        <g id="Logo-su-due-righe" serif:id="Logo su due righe" transform="matrix(0.289562,0,0,0.2,9095.68,384)">
            <rect x="0" y="0" width="3507.87" height="2480.32" style="fill:none;"/>
            <g transform="matrix(1,0,0,1,-17.9916,14.9507)">
                <g transform="matrix(8.1029,0,0,2.88698,-6599.06,-646.022)">
                    <path d="M879.233,393.416L895.195,393.416C894.705,375.778 893.514,360.131 891.624,346.475C889.734,332.82 887.336,321.369 884.431,312.123C881.525,302.877 878.235,295.836 874.559,291C870.884,286.164 866.981,283.746 862.85,283.746C857.11,283.746 851.946,287.871 847.361,296.121C842.775,304.371 838.907,315.75 835.757,330.259C832.606,344.768 830.191,361.767 828.511,381.254C826.831,400.741 825.991,421.865 825.991,444.624C825.991,466.814 826.831,487.51 828.511,506.713C830.191,525.916 832.606,542.63 835.757,556.854C838.907,571.079 842.775,582.245 847.361,590.353C851.946,598.461 857.11,602.515 862.85,602.515C867.471,602.515 871.707,599.67 875.557,593.98C879.408,588.29 882.768,580.04 885.638,569.23C888.509,558.419 890.819,545.333 892.569,529.97C894.32,514.608 895.405,497.396 895.825,478.336L879.863,478.336C879.233,498.819 877.5,515.319 874.664,527.837C871.829,540.354 867.891,546.613 862.85,546.613C859.14,546.613 855.99,543.697 853.399,537.865C850.809,532.033 848.709,524.281 847.098,514.608C845.488,504.935 844.315,494.054 843.58,481.963C842.845,469.872 842.478,457.426 842.478,444.624C842.478,431.253 842.845,418.309 843.58,405.791C844.315,393.274 845.488,382.107 847.098,372.293C848.709,362.478 850.809,354.654 853.399,348.822C855.99,342.99 859.14,340.074 862.85,340.074C864.881,340.074 866.823,341.426 868.679,344.128C870.534,346.831 872.197,350.6 873.667,355.437C875.137,360.273 876.362,365.892 877.342,372.293C878.322,378.694 878.953,385.735 879.233,393.416Z" style="fill-rule:nonzero;"/>
                </g>
                <g transform="matrix(8.1029,0,0,2.88698,-6599.06,-646.022)">
                    <path d="M899.605,442.917C899.815,428.692 900.69,416.886 902.231,407.498C903.771,398.11 905.731,390.571 908.111,384.881C910.492,379.191 913.17,375.137 916.145,372.719C919.12,370.301 922.113,369.092 925.124,369.092C927.854,369.092 930.619,369.874 933.42,371.439C936.22,373.004 938.775,376.062 941.086,380.614C943.396,385.166 945.286,391.496 946.757,399.603C948.227,407.711 948.962,418.451 948.962,431.822L948.962,546.613C948.962,556.57 949.102,566.1 949.382,575.204C949.662,584.308 950.152,591.135 950.852,595.687L935.73,595.687C935.45,592.273 935.223,588.788 935.047,585.232C934.872,581.676 934.75,578.049 934.68,574.35C932.3,584.308 929.499,591.278 926.279,595.26C923.058,599.243 919.768,601.235 916.408,601.235C913.817,601.235 911.402,599.954 909.162,597.394C906.921,594.834 904.961,590.851 903.281,585.446C901.601,580.04 900.288,573.213 899.343,564.962C898.398,556.712 897.925,546.897 897.925,535.518C897.925,523 898.468,512.688 899.553,504.58C900.638,496.472 902.038,490 903.753,485.163C905.469,480.327 907.429,476.7 909.634,474.282C911.839,471.864 914.062,469.943 916.303,468.521C918.543,467.098 920.748,465.96 922.918,465.107C925.089,464.253 927.014,462.973 928.694,461.266C930.374,459.559 931.705,457.07 932.685,453.799C933.665,450.527 934.12,445.762 934.05,439.503C934.05,432.96 933.787,427.768 933.262,423.927C932.737,420.087 932.037,417.1 931.162,414.966C930.287,412.832 929.272,411.41 928.117,410.699C926.961,409.987 925.719,409.632 924.389,409.632C921.448,409.632 919.138,412.192 917.458,417.313C915.777,422.434 914.797,430.968 914.517,442.917L899.605,442.917ZM934.05,487.724C933.42,490 932.632,491.778 931.687,493.058C930.742,494.338 929.727,495.405 928.642,496.258C927.556,497.112 926.419,497.823 925.229,498.392C924.039,498.961 922.848,499.672 921.658,500.526C920.538,501.379 919.435,502.517 918.35,503.94C917.265,505.362 916.32,507.282 915.515,509.7C914.71,512.119 914.062,515.177 913.572,518.875C913.082,522.574 912.837,527.268 912.837,532.957C912.837,538.363 913.082,542.915 913.572,546.613C914.062,550.311 914.727,553.227 915.567,555.361C916.408,557.495 917.388,558.988 918.508,559.842C919.628,560.695 920.783,561.122 921.973,561.122C924.914,561.122 927.189,559.13 928.799,555.148C930.409,551.165 931.6,546.4 932.37,540.852C933.14,535.304 933.612,529.686 933.787,523.996C933.962,518.306 934.05,513.754 934.05,510.341L934.05,487.724Z" style="fill-rule:nonzero;"/>
                </g>
                <g transform="matrix(8.1029,0,0,2.88698,-6599.06,-646.022)">
                    <path d="M955.263,375.066L955.263,595.687L970.175,595.687L970.175,496.258C970.175,486.301 970.42,477.055 970.91,468.521C971.4,459.986 972.222,452.518 973.378,446.117C974.533,439.716 976.055,434.667 977.946,430.968C979.836,427.27 982.146,425.421 984.877,425.421C985.787,425.421 986.732,425.634 987.712,426.061C988.692,426.488 989.532,426.985 990.232,427.554L990.232,371.226C989.042,369.803 987.957,369.092 986.977,369.092C985.087,369.092 983.266,370.23 981.516,372.506C979.766,374.782 978.121,377.982 976.581,382.107C975.04,386.233 973.675,391.211 972.485,397.043C971.295,402.875 970.35,409.205 969.65,416.033L969.44,416.033L969.44,375.066L955.263,375.066Z" style="fill-rule:nonzero;"/>
                </g>
                <g transform="matrix(7.82531,-3.04437,0.51746,2.78807,-6567.67,2499.56)">
                    <path d="M1004.3,485.59C1004.3,476.771 1004.51,468.094 1004.93,459.559C1005.35,451.025 1006.07,443.486 1007.09,436.943C1008.1,430.399 1009.45,425.065 1011.13,420.94C1012.81,416.815 1014.91,414.752 1017.43,414.752C1019.95,414.752 1022.07,416.815 1023.78,420.94C1025.5,425.065 1026.87,430.399 1027.88,436.943C1028.89,443.486 1029.61,451.025 1030.03,459.559C1030.45,468.094 1030.66,476.771 1030.66,485.59C1030.66,494.409 1030.45,503.015 1030.03,511.407C1029.61,519.8 1028.89,527.339 1027.88,534.024C1026.87,540.71 1025.5,546.044 1023.78,550.027C1022.07,554.01 1019.95,556.001 1017.43,556.001C1014.91,556.001 1012.81,554.01 1011.13,550.027C1009.45,546.044 1008.1,540.71 1007.09,534.024C1006.07,527.339 1005.35,519.8 1004.93,511.407C1004.51,503.015 1004.3,494.409 1004.3,485.59ZM989.392,485.59C989.392,503.228 990.057,519.16 991.387,533.384C992.718,547.609 994.608,559.77 997.058,569.87C999.509,579.969 1002.45,587.721 1005.88,593.127C1009.31,598.532 1013.16,601.235 1017.43,601.235C1021.7,601.235 1025.57,598.532 1029.04,593.127C1032.5,587.721 1035.46,579.969 1037.91,569.87C1040.36,559.77 1042.25,547.609 1043.58,533.384C1044.91,519.16 1045.58,503.228 1045.58,485.59C1045.58,467.952 1044.91,451.949 1043.58,437.583C1042.25,423.216 1040.36,410.983 1037.91,400.884C1035.46,390.784 1032.5,382.961 1029.04,377.413C1025.57,371.866 1021.7,369.092 1017.43,369.092C1013.16,369.092 1009.31,371.866 1005.88,377.413C1002.45,382.961 999.509,390.784 997.058,400.884C994.608,410.983 992.718,423.216 991.387,437.583C990.057,451.949 989.392,467.952 989.392,485.59Z" style="fill-rule:nonzero;"/>
                </g>
                <g transform="matrix(8.1029,0,0,2.88698,-6599.06,-646.022)">
                    <rect x="1050.4" y="291" width="14.912" height="304.687" style="fill-rule:nonzero;"/>
                </g>
                <g transform="matrix(8.1029,0,0,2.88698,-6599.06,-646.022)">
                    <path d="M1087.16,340.928L1087.16,291L1072.25,291L1072.25,340.928L1087.16,340.928ZM1072.25,375.066L1072.25,595.687L1087.16,595.687L1087.16,375.066L1072.25,375.066Z" style="fill-rule:nonzero;"/>
                </g>
                <g transform="matrix(8.1029,0,0,2.88698,-6599.06,-646.022)">
                    <path d="M1093.67,375.066L1093.67,595.687L1108.58,595.687L1108.58,480.043C1108.58,457.568 1109.49,441.423 1111.31,431.608C1113.13,421.794 1116.07,416.886 1120.13,416.886C1123.7,416.886 1126.19,421.367 1127.59,430.328C1128.99,439.29 1129.69,452.874 1129.69,471.081L1129.69,595.687L1144.6,595.687L1144.6,459.986C1144.6,446.331 1144.31,433.884 1143.71,422.647C1143.12,411.41 1142.08,401.879 1140.61,394.056C1139.14,386.233 1137.13,380.116 1134.57,375.706C1132.02,371.297 1128.75,369.092 1124.76,369.092C1121.61,369.092 1118.52,372.008 1115.51,377.84C1112.5,383.672 1110.05,392.989 1108.16,405.791L1107.85,405.791L1107.85,375.066L1093.67,375.066Z" style="fill-rule:nonzero;"/>
                </g>
                <g transform="matrix(8.1029,0,0,2.88698,-6599.06,-646.022)">
                    <path d="M1150.06,442.917C1150.27,428.692 1151.15,416.886 1152.69,407.498C1154.23,398.11 1156.19,390.571 1158.57,384.881C1160.95,379.191 1163.63,375.137 1166.6,372.719C1169.58,370.301 1172.57,369.092 1175.58,369.092C1178.31,369.092 1181.08,369.874 1183.88,371.439C1186.68,373.004 1189.23,376.062 1191.54,380.614C1193.85,385.166 1195.75,391.496 1197.21,399.603C1198.68,407.711 1199.42,418.451 1199.42,431.822L1199.42,546.613C1199.42,556.57 1199.56,566.1 1199.84,575.204C1200.12,584.308 1200.61,591.135 1201.31,595.687L1186.19,595.687C1185.91,592.273 1185.68,588.788 1185.51,585.232C1185.33,581.676 1185.21,578.049 1185.14,574.35C1182.76,584.308 1179.96,591.278 1176.74,595.26C1173.52,599.243 1170.23,601.235 1166.87,601.235C1164.28,601.235 1161.86,599.954 1159.62,597.394C1157.38,594.834 1155.42,590.851 1153.74,585.446C1152.06,580.04 1150.75,573.213 1149.8,564.962C1148.86,556.712 1148.38,546.897 1148.38,535.518C1148.38,523 1148.93,512.688 1150.01,504.58C1151.1,496.472 1152.5,490 1154.21,485.163C1155.93,480.327 1157.89,476.7 1160.09,474.282C1162.3,471.864 1164.52,469.943 1166.76,468.521C1169,467.098 1171.21,465.96 1173.38,465.107C1175.55,464.253 1177.47,462.973 1179.15,461.266C1180.83,459.559 1182.16,457.07 1183.14,453.799C1184.12,450.527 1184.58,445.762 1184.51,439.503C1184.51,432.96 1184.25,427.768 1183.72,423.927C1183.19,420.087 1182.5,417.1 1181.62,414.966C1180.75,412.832 1179.73,411.41 1178.58,410.699C1177.42,409.987 1176.18,409.632 1174.85,409.632C1171.91,409.632 1169.6,412.192 1167.92,417.313C1166.24,422.434 1165.26,430.968 1164.98,442.917L1150.06,442.917ZM1184.51,487.724C1183.88,490 1183.09,491.778 1182.14,493.058C1181.2,494.338 1180.18,495.405 1179.1,496.258C1178.02,497.112 1176.88,497.823 1175.69,498.392C1174.5,498.961 1173.31,499.672 1172.12,500.526C1171,501.379 1169.89,502.517 1168.81,503.94C1167.72,505.362 1166.78,507.282 1165.97,509.7C1165.17,512.119 1164.52,515.177 1164.03,518.875C1163.54,522.574 1163.3,527.268 1163.3,532.957C1163.3,538.363 1163.54,542.915 1164.03,546.613C1164.52,550.311 1165.19,553.227 1166.03,555.361C1166.87,557.495 1167.85,558.988 1168.97,559.842C1170.09,560.695 1171.24,561.122 1172.43,561.122C1175.37,561.122 1177.65,559.13 1179.26,555.148C1180.87,551.165 1182.06,546.4 1182.83,540.852C1183.6,535.304 1184.07,529.686 1184.25,523.996C1184.42,518.306 1184.51,513.754 1184.51,510.341L1184.51,487.724Z" style="fill-rule:nonzero;"/>
                </g>
                <g transform="matrix(8.1029,0,0,2.88698,-9824.04,538.455)">
                    <path d="M1247.73,414.326L1247.73,343.061L1263.16,343.061C1264.63,343.061 1266.05,343.559 1267.42,344.555C1268.78,345.551 1269.99,347.329 1271.04,349.889C1272.09,352.45 1272.93,356.006 1273.56,360.557C1274.19,365.109 1274.51,370.941 1274.51,378.053C1274.51,390.855 1273.56,400.101 1271.67,405.791C1269.78,411.481 1267.36,414.326 1264.42,414.326L1247.73,414.326ZM1231.24,291L1231.24,595.687L1267.57,595.687C1270.93,595.687 1274.21,593.98 1277.39,590.566C1280.58,587.152 1283.41,581.889 1285.9,574.777C1288.38,567.665 1290.36,558.49 1291.83,547.253C1293.3,536.016 1294.04,522.716 1294.04,507.353C1294.04,488.293 1292.9,472.006 1290.62,458.493C1288.35,444.979 1284.9,435.52 1280.28,430.115C1283.64,423.572 1286.18,415.179 1287.89,404.938C1289.61,394.696 1290.47,381.894 1290.47,366.532C1290.47,352.307 1289.89,340.359 1288.73,330.686C1287.58,321.014 1285.95,313.261 1283.85,307.429C1281.75,301.597 1279.23,297.401 1276.29,294.841C1273.35,292.28 1270.09,291 1266.52,291L1231.24,291ZM1247.73,543.626L1247.73,459.986L1265.68,459.986C1269.25,459.986 1272.12,463.329 1274.3,470.014C1276.46,476.7 1277.55,487.866 1277.55,503.513C1277.55,511.479 1277.22,518.022 1276.55,523.143C1275.89,528.263 1275,532.317 1273.88,535.304C1272.76,538.292 1271.46,540.425 1269.99,541.705C1268.52,542.986 1266.98,543.626 1265.37,543.626L1247.73,543.626Z" style="fill-rule:nonzero;"/>
                </g>
                <g transform="matrix(7.82586,-3.04137,0.516949,2.78827,-9707.85,4615.41)">
                    <path d="M1311.58,485.59C1311.58,476.771 1311.79,468.094 1312.2,459.559C1312.62,451.025 1313.34,443.486 1314.36,436.943C1315.37,430.399 1316.72,425.065 1318.4,420.94C1320.08,416.815 1322.18,414.752 1324.7,414.752C1327.22,414.752 1329.34,416.815 1331.06,420.94C1332.77,425.065 1334.13,430.399 1335.15,436.943C1336.17,443.486 1336.88,451.025 1337.3,459.559C1337.72,468.094 1337.93,476.771 1337.93,485.59C1337.93,494.409 1337.72,503.015 1337.3,511.407C1336.88,519.8 1336.17,527.339 1335.15,534.024C1334.13,540.71 1332.77,546.044 1331.06,550.027C1329.34,554.01 1327.22,556.001 1324.7,556.001C1322.18,556.001 1320.08,554.01 1318.4,550.027C1316.72,546.044 1315.37,540.71 1314.36,534.024C1313.34,527.339 1312.62,519.8 1312.2,511.407C1311.79,503.015 1311.58,494.409 1311.58,485.59ZM1296.66,485.59C1296.66,503.228 1297.33,519.16 1298.66,533.384C1299.99,547.609 1301.88,559.77 1304.33,569.87C1306.78,579.969 1309.72,587.721 1313.15,593.127C1316.58,598.532 1320.43,601.235 1324.7,601.235C1328.97,601.235 1332.84,598.532 1336.31,593.127C1339.77,587.721 1342.73,579.969 1345.18,569.87C1347.63,559.77 1349.52,547.609 1350.85,533.384C1352.18,519.16 1352.85,503.228 1352.85,485.59C1352.85,467.952 1352.18,451.949 1350.85,437.583C1349.52,423.216 1347.63,410.983 1345.18,400.884C1342.73,390.784 1339.77,382.961 1336.31,377.413C1332.84,371.866 1328.97,369.092 1324.7,369.092C1320.43,369.092 1316.58,371.866 1313.15,377.413C1309.72,382.961 1306.78,390.784 1304.33,400.884C1301.88,410.983 1299.99,423.216 1298.66,437.583C1297.33,451.949 1296.66,467.952 1296.66,485.59Z" style="fill-rule:nonzero;"/>
                </g>
                <g transform="matrix(8.1029,0,0,2.88698,-9824.04,538.455)">
                    <path d="M1357.26,375.066L1357.26,595.687L1372.17,595.687L1372.17,480.043C1372.17,457.568 1373.08,441.423 1374.9,431.608C1376.72,421.794 1379.66,416.886 1383.72,416.886C1387.29,416.886 1389.78,421.367 1391.17,430.328C1392.58,439.29 1393.28,452.874 1393.28,471.081L1393.28,595.687L1408.19,595.687L1408.19,459.986C1408.19,446.331 1407.89,433.884 1407.3,422.647C1406.7,411.41 1405.67,401.879 1404.2,394.056C1402.73,386.233 1400.71,380.116 1398.16,375.706C1395.6,371.297 1392.33,369.092 1388.34,369.092C1385.19,369.092 1382.11,372.008 1379.1,377.84C1376.09,383.672 1373.64,392.989 1371.75,405.791L1371.43,405.791L1371.43,375.066L1357.26,375.066Z" style="fill-rule:nonzero;"/>
                </g>
                <g transform="matrix(8.1029,0,0,2.88698,-9824.04,538.455)">
                    <path d="M1413.65,442.917C1413.86,428.692 1414.73,416.886 1416.27,407.498C1417.81,398.11 1419.77,390.571 1422.15,384.881C1424.54,379.191 1427.21,375.137 1430.19,372.719C1433.16,370.301 1436.16,369.092 1439.17,369.092C1441.9,369.092 1444.66,369.874 1447.46,371.439C1450.26,373.004 1452.82,376.062 1455.13,380.614C1457.44,385.166 1459.33,391.496 1460.8,399.603C1462.27,407.711 1463.01,418.451 1463.01,431.822L1463.01,546.613C1463.01,556.57 1463.14,566.1 1463.42,575.204C1463.7,584.308 1464.19,591.135 1464.89,595.687L1449.77,595.687C1449.49,592.273 1449.27,588.788 1449.09,585.232C1448.92,581.676 1448.79,578.049 1448.72,574.35C1446.34,584.308 1443.54,591.278 1440.32,595.26C1437.1,599.243 1433.81,601.235 1430.45,601.235C1427.86,601.235 1425.44,599.954 1423.2,597.394C1420.96,594.834 1419,590.851 1417.32,585.446C1415.64,580.04 1414.33,573.213 1413.39,564.962C1412.44,556.712 1411.97,546.897 1411.97,535.518C1411.97,523 1412.51,512.688 1413.6,504.58C1414.68,496.472 1416.08,490 1417.8,485.163C1419.51,480.327 1421.47,476.7 1423.68,474.282C1425.88,471.864 1428.11,469.943 1430.35,468.521C1432.59,467.098 1434.79,465.96 1436.96,465.107C1439.13,464.253 1441.06,462.973 1442.74,461.266C1444.42,459.559 1445.75,457.07 1446.73,453.799C1447.71,450.527 1448.16,445.762 1448.09,439.503C1448.09,432.96 1447.83,427.768 1447.31,423.927C1446.78,420.087 1446.08,417.1 1445.2,414.966C1444.33,412.832 1443.32,411.41 1442.16,410.699C1441.01,409.987 1439.76,409.632 1438.43,409.632C1435.49,409.632 1433.18,412.192 1431.5,417.313C1429.82,422.434 1428.84,430.968 1428.56,442.917L1413.65,442.917ZM1448.09,487.724C1447.46,490 1446.67,491.778 1445.73,493.058C1444.79,494.338 1443.77,495.405 1442.68,496.258C1441.6,497.112 1440.46,497.823 1439.27,498.392C1438.08,498.961 1436.89,499.672 1435.7,500.526C1434.58,501.379 1433.48,502.517 1432.39,503.94C1431.31,505.362 1430.36,507.282 1429.56,509.7C1428.75,512.119 1428.11,515.177 1427.62,518.875C1427.12,522.574 1426.88,527.268 1426.88,532.957C1426.88,538.363 1427.12,542.915 1427.62,546.613C1428.11,550.311 1428.77,553.227 1429.61,555.361C1430.45,557.495 1431.43,558.988 1432.55,559.842C1433.67,560.695 1434.83,561.122 1436.02,561.122C1438.96,561.122 1441.23,559.13 1442.84,555.148C1444.45,551.165 1445.64,546.4 1446.41,540.852C1447.18,535.304 1447.65,529.686 1447.83,523.996C1448.01,518.306 1448.09,513.754 1448.09,510.341L1448.09,487.724Z" style="fill-rule:nonzero;"/>
                </g>
                <g transform="matrix(8.1029,0,0,2.88698,-9824.04,538.455)">
                    <path d="M1469.31,375.066L1469.31,595.687L1484.22,595.687L1484.22,480.043C1484.22,457.568 1485.13,441.423 1486.95,431.608C1488.77,421.794 1491.71,416.886 1495.77,416.886C1499.34,416.886 1501.83,421.367 1503.23,430.328C1504.63,439.29 1505.33,452.874 1505.33,471.081L1505.33,595.687L1520.24,595.687L1520.24,459.986C1520.24,446.331 1519.94,433.884 1519.35,422.647C1518.75,411.41 1517.72,401.879 1516.25,394.056C1514.78,386.233 1512.76,380.116 1510.21,375.706C1507.65,371.297 1504.38,369.092 1500.39,369.092C1497.24,369.092 1494.16,372.008 1491.15,377.84C1488.14,383.672 1485.69,392.989 1483.8,405.791L1483.48,405.791L1483.48,375.066L1469.31,375.066Z" style="fill-rule:nonzero;"/>
                </g>
                <g transform="matrix(8.1029,0,0,2.88698,-9824.04,538.455)">
                    <path d="M1526.33,375.066L1526.33,595.687L1541.24,595.687L1541.24,480.043C1541.24,457.568 1542.15,441.423 1543.97,431.608C1545.79,421.794 1548.73,416.886 1552.79,416.886C1556.36,416.886 1558.85,421.367 1560.25,430.328C1561.65,439.29 1562.35,452.874 1562.35,471.081L1562.35,595.687L1577.26,595.687L1577.26,459.986C1577.26,446.331 1576.96,433.884 1576.37,422.647C1575.77,411.41 1574.74,401.879 1573.27,394.056C1571.8,386.233 1569.79,380.116 1567.23,375.706C1564.68,371.297 1561.4,369.092 1557.41,369.092C1554.26,369.092 1551.18,372.008 1548.17,377.84C1545.16,383.672 1542.71,392.989 1540.82,405.791L1540.51,405.791L1540.51,375.066L1526.33,375.066Z" style="fill-rule:nonzero;"/>
                </g>
                <g transform="matrix(7.8254,-3.04387,0.517375,2.78811,-9628.35,5486.33)">
                    <path d="M1596.58,485.59C1596.58,476.771 1596.79,468.094 1597.21,459.559C1597.63,451.025 1598.35,443.486 1599.37,436.943C1600.38,430.399 1601.73,425.065 1603.41,420.94C1605.09,416.815 1607.19,414.752 1609.71,414.752C1612.23,414.752 1614.35,416.815 1616.06,420.94C1617.78,425.065 1619.14,430.399 1620.16,436.943C1621.17,443.486 1621.89,451.025 1622.31,459.559C1622.73,468.094 1622.94,476.771 1622.94,485.59C1622.94,494.409 1622.73,503.015 1622.31,511.407C1621.89,519.8 1621.17,527.339 1620.16,534.024C1619.14,540.71 1617.78,546.044 1616.06,550.027C1614.35,554.01 1612.23,556.001 1609.71,556.001C1607.19,556.001 1605.09,554.01 1603.41,550.027C1601.73,546.044 1600.38,540.71 1599.37,534.024C1598.35,527.339 1597.63,519.8 1597.21,511.407C1596.79,503.015 1596.58,494.409 1596.58,485.59ZM1581.67,485.59C1581.67,503.228 1582.34,519.16 1583.67,533.384C1585,547.609 1586.89,559.77 1589.34,569.87C1591.79,579.969 1594.73,587.721 1598.16,593.127C1601.59,598.532 1605.44,601.235 1609.71,601.235C1613.98,601.235 1617.85,598.532 1621.31,593.127C1624.78,587.721 1627.74,579.969 1630.19,569.87C1632.64,559.77 1634.53,547.609 1635.86,533.384C1637.19,519.16 1637.85,503.228 1637.85,485.59C1637.85,467.952 1637.19,451.949 1635.86,437.583C1634.53,423.216 1632.64,410.983 1630.19,400.884C1627.74,390.784 1624.78,382.961 1621.31,377.413C1617.85,371.866 1613.98,369.092 1609.71,369.092C1605.44,369.092 1601.59,371.866 1598.16,377.413C1594.73,382.961 1591.79,390.784 1589.34,400.884C1586.89,410.983 1585,423.216 1583.67,437.583C1582.34,451.949 1581.67,467.952 1581.67,485.59Z" style="fill-rule:nonzero;"/>
                </g>
            </g>
        </g>
    </g>
</svg>
